<?xml version="1.0" encoding="UTF-8"?>
<svg width="20px" height="20px" viewBox="0 0 20 20" version="1.1" xmlns="http://www.w3.org/2000/svg" xmlns:xlink="http://www.w3.org/1999/xlink">
    <title>external-link</title>
    <defs>
        <path d="M11,5 C11.5522847,5 12,5.44771525 12,6 C12,6.55228475 11.5522847,7 11,7 L11,7 L5,7 C4.44771525,7 4,7.44771525 4,8 L4,8 L4,19 C4,19.5522847 4.44771525,20 5,20 L5,20 L16,20 C16.5522847,20 17,19.5522847 17,19 L17,19 L17,13 C17,12.4477153 17.4477153,12 18,12 C18.5522847,12 19,12.4477153 19,13 L19,13 L19,19 C19,20.6568542 17.6568542,22 16,22 L16,22 L5,22 C3.34314575,22 2,20.6568542 2,19 L2,19 L2,8 C2,6.34314575 3.34314575,5 5,5 L5,5 Z M21,2 C21.0064615,2 21.0129086,2.00006128 21.0193409,2.0001833 C21.042681,2.00063489 21.0659949,2.00189498 21.0892501,2.00396641 C21.1096949,2.00574796 21.1294204,2.00810098 21.1489612,2.01101934 C21.165949,2.01362808 21.1833753,2.01670217 21.2007258,2.02024007 C21.2227461,2.0246398 21.2444365,2.02983363 21.2658396,2.03572097 C21.2814633,2.04009773 21.2968513,2.04472872 21.3121425,2.04973809 C21.3317977,2.05612249 21.3515792,2.06331574 21.3710585,2.07110396 C21.3887956,2.07819642 21.4060985,2.08567905 21.4232215,2.09367336 C21.4438914,2.10337664 21.4642939,2.11379392 21.484277,2.12487577 C21.4963944,2.13149883 21.5086131,2.13860692 21.5207088,2.14599545 C21.546275,2.1617187 21.5711307,2.17849009 21.5951593,2.19631351 C21.6343256,2.22531295 21.6717127,2.25749917 21.7071068,2.29289322 L21.6167501,2.21278596 C21.6801818,2.26255171 21.7374483,2.31981825 21.787214,2.38324992 C21.7927155,2.39015759 21.7982466,2.39739696 21.8036654,2.40469339 C21.8215099,2.42886931 21.8382813,2.45372505 21.8539326,2.47933981 C21.8613931,2.49138689 21.8685012,2.50360556 21.8753288,2.5159379 C21.8862061,2.53570605 21.8966234,2.5561086 21.9063462,2.57690085 C21.914321,2.5939015 21.9218036,2.61120435 21.9287745,2.62866398 C21.9366843,2.6484208 21.9438775,2.66820232 21.9504533,2.68826359 C21.9552713,2.70314866 21.9599023,2.71853672 21.9641549,2.73400703 C21.9701664,2.75556352 21.9753602,2.77725392 21.9798348,2.7992059 C21.9832978,2.81662474 21.9863719,2.83405099 21.9889822,2.85153313 C21.9962388,2.89963791 22,2.94937972 22,3 L21.9962979,2.9137692 C21.9978436,2.93173451 21.9989053,2.94973363 21.9994829,2.96774538 L22,3 L22,9 C22,9.55228475 21.5522847,10 21,10 C20.4477153,10 20,9.55228475 20,9 L20,9 L20,5.414 L10.7071068,14.7071068 C10.3466228,15.0675907 9.77939176,15.0953203 9.38710056,14.7902954 L9.29289322,14.7071068 C8.90236893,14.3165825 8.90236893,13.6834175 9.29289322,13.2928932 L9.29289322,13.2928932 L18.584,4 L15,4 C14.4871642,4 14.0644928,3.61395981 14.0067277,3.11662113 L14,3 C14,2.44771525 14.4477153,2 15,2 L15,2 Z" id="path-1"></path>
    </defs>
    <g id="Page-1" stroke="none" stroke-width="1" fill="none" fill-rule="evenodd">
        <g id="Desktop-HD" transform="translate(-1098.000000, -1813.000000)">
            <g id="Selected-work" transform="translate(249.550000, 1671.000000)">
                <g id="Project-1" transform="translate(0.450000, 77.000000)">
                    <g id="external-link" transform="translate(846.000000, 63.000000)">
                        <mask id="mask-2" fill="white">
                            <use xlink:href="#path-1"></use>
                        </mask>
                        <use id="Combined-Shape" fill="#FFC378" fill-rule="nonzero" xlink:href="#path-1"></use>
                        <g id="Group" mask="url(#mask-2)" fill="#FFC378">
                            <g id="🎨Color">
                                <rect id="Rectangle" x="0" y="0" width="24" height="24"></rect>
                            </g>
                        </g>
                    </g>
                </g>
            </g>
        </g>
    </g>
</svg>