<?xml version="1.0" encoding="UTF-8"?>
<svg width="36px" height="38px" viewBox="0 0 36 38" version="1.1" xmlns="http://www.w3.org/2000/svg" xmlns:xlink="http://www.w3.org/1999/xlink">
    <title>github copy</title>
    <defs>
        <path d="M14.1580597,30.9435323 C10.6617232,31.9924332 9.24890961,31.4372944 7.50032638,29.2722109 C7.38439532,29.1286659 6.89834725,28.5116482 6.76829498,28.3509408 C5.72333149,27.0596645 4.88723356,26.3592967 3.64412039,26.0485184 C2.77345367,25.8308518 1.89118512,26.3602129 1.67351844,27.2308796 C1.45585176,28.1015463 1.98521288,28.9838149 2.85587961,29.2014816 C3.23025432,29.2950752 3.60652835,29.6102658 4.2419091,30.3954149 C4.35437862,30.5343951 4.83911211,31.1497439 4.97193871,31.3142089 C7.49755394,34.441408 10.2299682,35.5150594 15.0919403,34.0564677 C15.9515537,33.7985837 16.4393517,32.8926731 16.1814677,32.0330597 C15.9235837,31.1734463 15.0176731,30.6856483 14.1580597,30.9435323 Z M36.5625,15.47 C36.5620669,13.1137193 35.767037,10.8369287 34.3217421,9.00025645 C34.8768811,6.88586546 34.7158957,4.63628252 33.8473401,2.60983302 C33.6570221,2.16579726 33.2790018,1.82946394 32.815843,1.69208632 C32.7227737,1.66448102 32.6092689,1.63950188 32.4755005,1.6200845 C30.9482672,1.3983962 28.7094091,2.00133835 25.7090712,3.90462607 C22.1607488,3.06237664 18.4642512,3.06237664 14.9159288,3.90462607 C11.9155909,2.00133835 9.67673283,1.3983962 8.14949946,1.6200845 C8.01573113,1.63950188 7.90222627,1.66448102 7.80915696,1.69208632 C7.34599815,1.82946394 6.96797792,2.16579726 6.77765995,2.60983302 C5.90910735,4.63627543 5.74812004,6.88584972 6.30325211,9.00023427 C4.84578116,10.8523005 4.04989212,13.1514465 4.0623749,15.5273886 C4.0623749,23.0206344 7.40965345,26.6843729 13.4885604,28.0793709 C13.0990443,29.0595162 12.9283738,30.1249307 13.0040043,31.2002587 L13,37.375 C13,38.2724627 13.7275373,39 14.625,39 C15.5224627,39 16.25,38.2724627 16.25,37.375 L16.25,31.08625 C16.1692808,29.8814957 16.5598321,28.8095571 17.3202316,28.0238066 C18.2524551,27.0605036 17.6830903,25.446369 16.3527922,25.2811409 C10.1864006,24.5152515 7.3125,22.0986965 7.3125,15.51875 C7.30255993,13.6446399 8.01557761,11.8478353 9.30190719,10.4967474 C9.73071872,10.046348 9.86487203,9.39071613 9.6474362,8.80808365 C9.18032755,7.55643769 9.1060798,6.20123055 9.42045961,4.91979141 C9.53454897,4.94557445 9.65967714,4.97761043 9.79612437,5.01688967 C10.8432275,5.31832066 12.1481781,5.9510278 13.7201921,7.00479541 C14.1109447,7.26672851 14.5960328,7.34647347 15.0500747,7.22341846 C18.4961979,6.28944585 22.1288021,6.28944585 25.5749253,7.22341846 C26.0289672,7.34647347 26.5140553,7.26672851 26.9048079,7.00479541 C28.4768219,5.9510278 29.7817725,5.31832066 30.8288756,5.01688967 C30.9653229,4.97761043 31.090451,4.94557445 31.2045404,4.91979141 C31.5189202,6.20123055 31.4446724,7.55643769 30.9775638,8.80808365 C30.7601322,9.39070489 30.8942758,10.0463238 31.3230699,10.4967233 C32.5998756,11.8378629 33.3121596,13.6185729 33.3125,15.4702987 C33.3125,22.1125031 30.4168456,24.54735 24.2924843,25.2300018 C22.9501826,25.3796214 22.3656668,27.0063644 23.3057691,27.9760898 C24.0754376,28.7700108 24.4667246,29.8564566 24.380005,30.9588086 L24.375,37.375 C24.375,38.2724627 25.1025373,39 26,39 C26.8974627,39 27.625,38.2724627 27.625,37.375 L27.625,31.08625 C27.7075627,30.0707558 27.5411346,29.0273868 27.1527765,28.0526834 C33.1984791,26.7123357 36.5625,23.0134901 36.5625,15.47 Z" id="path-1"></path>
    </defs>
    <g id="Page-1" stroke="none" stroke-width="1" fill="none" fill-rule="evenodd">
        <g id="Desktop-HD" transform="translate(-705.000000, -2910.000000)">
            <g id="Get-in-touch" transform="translate(236.550000, 2506.000000)">
                <g id="Group-5" transform="translate(372.450000, 403.000000)">
                    <g id="github-copy" transform="translate(95.000000, 0.000000)">
                        <mask id="mask-2" fill="white">
                            <use xlink:href="#path-1"></use>
                        </mask>
                        <use id="Shape" fill="#FFC378" fill-rule="nonzero" xlink:href="#path-1"></use>
                        <g id="Group" mask="url(#mask-2)" fill="#FFC378">
                            <g id="🎨Color">
                                <rect id="Rectangle" x="0" y="0" width="39" height="39"></rect>
                            </g>
                        </g>
                    </g>
                </g>
            </g>
        </g>
    </g>
</svg>