<?xml version="1.0" encoding="UTF-8"?>
<svg width="40px" height="39px" viewBox="0 0 40 39" version="1.1" xmlns="http://www.w3.org/2000/svg" xmlns:xlink="http://www.w3.org/1999/xlink">
    <title>icons8-linkedin</title>
    <g id="Page-1" stroke="none" stroke-width="1" fill="none" fill-rule="evenodd">
        <g id="Desktop-HD" transform="translate(-609.000000, -2909.000000)" fill="#FFC378" fill-rule="nonzero">
            <g id="Get-in-touch" transform="translate(236.550000, 2506.000000)">
                <g id="icons8-linkedin" transform="translate(372.450000, 403.000000)">
                    <path d="M4.89285714,0 C2.33973505,0 0.25,2.08973505 0.25,4.64285714 L0.25,34.3571429 C0.25,36.9102649 2.33973505,39 4.89285714,39 L34.6071429,39 C37.1602649,39 39.25,36.9102649 39.25,34.3571429 L39.25,4.64285714 C39.25,2.08973505 37.1602649,0 34.6071429,0 L4.89285714,0 Z M4.89285714,1.85714286 L34.6071429,1.85714286 C36.1564494,1.85714286 37.3928571,3.09355066 37.3928571,4.64285714 L37.3928571,34.3571429 C37.3928571,35.9064494 36.1564494,37.1428571 34.6071429,37.1428571 L4.89285714,37.1428571 C3.34355066,37.1428571 2.10714286,35.9064494 2.10714286,34.3571429 L2.10714286,4.64285714 C2.10714286,3.09355066 3.34355066,1.85714286 4.89285714,1.85714286 Z M9.53571429,6.51088193 C8.51872336,6.51088193 7.6035605,6.81485907 6.92592064,7.38504464 C6.24828079,7.95523021 5.8323105,8.80704593 5.8323105,9.71916864 C5.8323105,11.4529786 7.33619321,12.8046369 9.24916271,12.9383373 C9.25037038,12.9389445 9.25157938,12.939549 9.25278971,12.9401508 C9.34394367,12.97122 9.4394207,12.9877447 9.53571429,12.9891181 C11.6463664,12.9891181 13.2391181,11.5106485 13.2391181,9.71916864 C13.2389496,9.70283267 13.2383449,9.68650411 13.2373046,9.67020043 C13.1428215,7.90570021 11.5696971,6.51088193 9.53571429,6.51088193 Z M9.53571429,8.34626093 C10.8285002,8.34626093 11.3389721,8.92360671 11.3946706,9.742746 C11.3833885,10.5378316 10.8915131,11.1537391 9.53571429,11.1537391 C8.24926586,11.1537391 7.6676895,10.4949232 7.6676895,9.71916864 C7.6676895,9.33129136 7.80922421,9.038991 8.10658529,8.78878371 C8.40394357,8.53857643 8.88127664,8.34626093 9.53571429,8.34626093 Z M6.75,13.9285714 C6.2371854,13.9285714 5.82142857,14.3443283 5.82142857,14.8571429 L5.82142857,32.5 C5.82142857,33.0128146 6.2371854,33.4285714 6.75,33.4285714 L12.3214286,33.4285714 C12.8342432,33.4285714 13.25,33.0128146 13.25,32.5 L13.25,27.0537113 L13.25,14.8571429 C13.25,14.3443283 12.8342432,13.9285714 12.3214286,13.9285714 L6.75,13.9285714 Z M15.1071429,13.9285714 C14.5943283,13.9285714 14.1785714,14.3443283 14.1785714,14.8571429 L14.1785714,32.5 C14.1785714,33.0128146 14.5943283,33.4285714 15.1071429,33.4285714 L20.6785714,33.4285714 C21.191386,33.4285714 21.6070916,33.0128146 21.6071429,32.5 L21.6071429,23.2142857 C21.6071429,22.4438806 21.8173659,21.6775325 22.1875,21.1757817 C22.5576341,20.6740291 23.0245756,20.3729101 23.912249,20.3886716 C24.8275827,20.4044109 25.3121419,20.7179784 25.6787113,21.2102401 C26.0452797,21.7025009 26.25,22.4404765 26.25,23.2142857 L26.25,32.5 C26.2500513,33.0128146 26.6657568,33.4285714 27.1785714,33.4285714 L32.75,33.4285714 C33.2628146,33.4285714 33.6785714,33.0128146 33.6785714,32.5 L33.6785714,22.5287391 C33.6785714,19.7787395 32.8640174,17.6004493 31.4677738,16.1266746 C30.0715292,14.652898 28.1295883,13.9285714 26.0758929,13.9285714 C24.1240199,13.9285714 22.6386492,14.5831112 21.6071429,15.2506974 L21.6071429,14.8571429 C21.6070916,14.3443283 21.191386,13.9285714 20.6785714,13.9285714 L15.1071429,13.9285714 Z M7.67857143,15.7857143 L11.3928571,15.7857143 L11.3928571,27.0537113 L11.3928571,31.5714286 L7.67857143,31.5714286 L7.67857143,15.7857143 Z M16.0357143,15.7857143 L19.75,15.7857143 L19.75,17.2347936 C19.7501183,17.6340839 20.005458,17.9886029 20.3841345,18.1152395 C20.762811,18.241876 21.1800481,18.1122794 21.4203403,17.7933869 C21.4203403,17.7933869 22.8785373,15.7857143 26.0758929,15.7857143 C27.7039831,15.7857143 29.1001256,16.3266824 30.1202569,17.4034603 C31.1403883,18.4802373 31.8214286,20.1390958 31.8214286,22.5287391 L31.8214286,31.5714286 L28.1071429,31.5714286 L28.1071429,23.2142857 C28.1071429,22.1309521 27.8475774,21.0108851 27.169503,20.1003066 C26.4914295,19.189729 25.3509887,18.5557134 23.9448939,18.5315288 C22.5315673,18.5064295 21.3726962,19.1536317 20.6930804,20.0749166 C20.0134645,20.9962006 19.75,22.1275479 19.75,23.2142857 L19.75,31.5714286 L16.0357143,31.5714286 L16.0357143,15.7857143 Z" id="Shape"></path>
                </g>
            </g>
        </g>
    </g>
</svg>