<?xml version="1.0" encoding="UTF-8"?>
<svg width="39px" height="33px" viewBox="0 0 39 33" version="1.1" xmlns="http://www.w3.org/2000/svg" xmlns:xlink="http://www.w3.org/1999/xlink">
    <title>twitter</title>
    <defs>
        <path d="M36.4416005,3.56386175 C37.6685409,2.698409 39.3123885,3.8174308 38.9571151,5.27625643 C38.4004862,7.5618897 37.2847164,9.6686038 35.7156474,11.4096492 C35.7398218,11.6728584 35.752384,11.9377887 35.7532607,12.204252 C35.7532607,31.4758391 17.1534021,41.3757638 0.839090928,32.3122576 C-0.657017302,31.4810864 -0.0172882826,29.2000136 1.69284575,29.268036 C4.43356999,29.3770513 7.1466743,28.8321627 9.61376506,27.6957686 C6.03203675,25.4880447 3.73859095,22.5652205 2.61348626,19.1075817 C1.45181517,15.5375681 1.62137667,11.7859367 2.59050718,8.22295693 C2.88366432,7.14517329 3.18162611,6.33308137 3.39331693,5.85677703 C3.90628287,4.70260366 5.48221169,4.54923624 6.20809003,5.58284684 C8.92442038,9.45075096 13.2193471,11.8652712 17.8778032,12.214824 C17.8528413,8.50244582 20.1348562,5.16113085 23.6071869,3.83581379 C26.7473234,2.63728843 30.2600895,3.31679935 32.7190727,5.51743767 C34.0387262,5.03235397 35.2904231,4.37587311 36.4416005,3.56386175 Z M32.7443016,8.93398867 C32.1322767,9.11828252 31.469058,8.92667715 31.0496102,8.44438847 C29.4924145,6.65389656 26.9830214,6.02601044 24.7660992,6.87216396 C22.549177,7.71831747 21.0963056,9.85851825 21.1282607,12.253002 L21.1282607,13.878002 C21.1282607,14.7590571 20.4261416,15.4796181 19.5453826,15.502456 C14.2466884,15.6398505 9.18442788,13.5540316 5.53485817,9.83704884 C4.89292755,12.6078228 4.84598991,15.4651734 5.70398629,18.1019428 C6.80415471,21.4829482 9.32265533,24.2276614 13.6632357,26.1568083 C14.8279758,26.6744706 14.9704951,28.2704075 13.9159093,28.9862585 C12.0973679,30.2206812 10.1047778,31.1471245 8.01776288,31.7428385 C20.4963861,35.0257422 32.5032618,26.7418392 32.5032696,12.2096243 C32.5021057,11.8575727 32.4682567,11.5063895 32.4021585,11.1605966 C32.3003189,10.6278227 32.4710235,10.0793636 32.8572301,9.69849118 C33.219219,9.34150188 33.5544939,8.96100949 33.8612556,8.5601882 C33.4931857,8.69596601 33.1207045,8.82064569 32.7443016,8.93398867 Z" id="path-1"></path>
    </defs>
    <g id="Page-1" stroke="none" stroke-width="1" fill="none" fill-rule="evenodd">
        <g id="Desktop-HD" transform="translate(-799.000000, -2912.000000)">
            <g id="Get-in-touch" transform="translate(236.550000, 2506.000000)">
                <g id="Group-5" transform="translate(372.450000, 403.000000)">
                    <g id="twitter" transform="translate(190.000000, 0.000000)">
                        <mask id="mask-2" fill="white">
                            <use xlink:href="#path-1"></use>
                        </mask>
                        <use id="Shape" fill="#FFC378" fill-rule="nonzero" xlink:href="#path-1"></use>
                        <g id="Group" mask="url(#mask-2)" fill="#FFC378">
                            <g id="🎨Color">
                                <rect id="Rectangle" x="0" y="0" width="39" height="39"></rect>
                            </g>
                        </g>
                    </g>
                </g>
            </g>
        </g>
    </g>
</svg>